<?xml version="1.0" encoding="utf-8"?>
<!-- Generator: Adobe Illustrator 19.2.0, SVG Export Plug-In . SVG Version: 6.00 Build 0)  -->
<svg version="1.1" id="Capa_1" xmlns="http://www.w3.org/2000/svg" xmlns:xlink="http://www.w3.org/1999/xlink" x="0px" y="0px"
	 viewBox="0 0 38.4 39.4" style="enable-background:new 0 0 38.4 39.4;" xml:space="preserve">
<style type="text/css">
	.st0{fill:#2981BA;}
</style>
<g>
	<path class="st0" d="M19.1,33.8C12,33.8,6.3,28,6.3,21c0-7.1,5.7-12.8,12.8-12.8c0.5,0,0.9,0,1.4,0.1V6.2c0-0.3,0.2-0.5,0.4-0.6
		c0.3-0.1,0.5,0,0.7,0.1l4.5,4.5c0.3,0.3,0.3,0.7,0,0.9l-4.5,4.6c-0.2,0.2-0.5,0.2-0.7,0.1c-0.2-0.1-0.4-0.3-0.4-0.6V13
		c-0.5-0.1-0.9-0.1-1.4-0.1C14.7,12.8,11,16.5,11,21s3.6,8.1,8.1,8.1s8.1-3.6,8.1-8.1c0-0.4,0.3-0.7,0.7-0.7h3.4
		c0.4,0,0.7,0.3,0.7,0.7C31.9,28,26.2,33.8,19.1,33.8z"/>
</g>
</svg>
